<?xml version="1.0" encoding="UTF-8" standalone="no"?>
<!DOCTYPE svg PUBLIC "-//W3C//DTD SVG 1.1//EN" "http://www.w3.org/Graphics/SVG/1.1/DTD/svg11.dtd">
<svg width="100%" height="100%" viewBox="0 0 308 171" version="1.1" xmlns="http://www.w3.org/2000/svg" xmlns:xlink="http://www.w3.org/1999/xlink" xml:space="preserve" xmlns:serif="http://www.serif.com/" style="fill-rule:evenodd;clip-rule:evenodd;stroke-linejoin:round;stroke-miterlimit:2;">
    <g id="Artboard1" transform="matrix(2.53324,0,0,1.63981,2.18086,2.60571)">
        <rect x="-0.861" y="-1.589" width="121.386" height="104.168" style="fill:none;"/>
        <g transform="matrix(0.243645,0,0,0.376392,0.117961,38.9429)">
            <path d="M31.5,23.7C29.7,25.6 28.2,28.6 27.6,33.1L50.9,70.6L54.8,76.9L50.8,71.1L25.9,35.1C25.9,35.1 9.2,35.8 12,53.5L44.8,79.2L50.3,83.5L44.9,79.7L11,56C11,56 -4.5,63.4 3.2,78.9L41.4,89.6C41.4,89.6 27.8,92 20.2,96.6C19.1,97.3 18.8,98.7 19.4,99.8C19.8,100.4 20.5,100.8 21.2,100.9C21.7,100.9 22.1,101 22.6,101C24.9,101.1 27.3,100.8 29.6,100.2C29.7,100.5 30.7,103.1 33.2,103.7C34.8,104.1 37,103.4 39.9,100.4C39.9,100.4 47.6,110.8 56.3,101.2C56.6,101.6 61.6,107.6 69.4,107.1C76.8,106.6 80,100.6 80.3,100.1C82,103.3 85.7,105.3 89.3,105.2C94.2,105.1 96.8,101.1 97,100.8C98.3,103 100.7,104 102.8,103.5C104.2,103.1 105.4,102.1 106,100.8C108.4,101.4 110.8,101.8 113.3,101.9L113.4,101.9C114.7,101.9 115.8,100.9 115.8,99.6C115.8,98.9 115.5,98.1 114.9,97.7C108.9,93.1 101.8,90.3 94.4,89.3L133.2,81.5C133.2,81.5 141.1,64 126.8,58.1L91.6,79.3L85.7,82.8L91.2,79.1L125.5,56C125.5,56 127.9,36.3 112.8,36.7L85.6,70.7L81,76.4C83.1,73.5 85.1,70.7 85.1,70.7L110.8,35C110.8,35 107.4,15.6 93.2,22.1L77.4,65.1C77.4,65.1 76.1,68.7 74.7,72.3L77,65.3L91,21.4C91,21.4 82.2,4.6 70.7,16.4L68.2,63.1C68.2,63.1 68,67 67.8,71L67.9,63.5L68.4,16.7C68.4,16.7 55.3,4.5 47.9,20.3L59,65C59,65 59.9,68.8 60.9,72.5C59.9,69 58.8,65.4 58.8,65.4L45.8,21.3C45.8,21.4 36.9,18 31.5,23.7Z" style="fill:rgb(246,137,39);fill-rule:nonzero;"/>
        </g>
        <g transform="matrix(0.243645,0,0,0.376392,0.117961,38.9429)">
            <path d="M68.2,100.5C61.5,100.5 56.1,95.1 56.1,88.4C56.1,81.7 61.5,76.3 68.2,76.3C74.9,76.3 80.3,81.7 80.3,88.4C80.3,95.1 74.9,100.5 68.2,100.5ZM68.2,77.5C62.2,77.5 57.4,82.3 57.4,88.3C57.4,94.3 62.2,99.1 68.2,99.1C74.2,99.1 79,94.3 79,88.3C79.1,82.4 74.2,77.5 68.2,77.5Z" style="fill:white;fill-rule:nonzero;"/>
        </g>
        <g transform="matrix(0.243645,0,0,0.376392,0.117961,38.9429)">
            <path d="M68.2,95C64.6,95 61.6,92.1 61.6,88.4C61.6,84.8 64.5,81.8 68.2,81.8C71.9,81.8 74.8,84.7 74.8,88.4C74.8,92 71.9,94.9 68.2,95ZM68.2,83C65.3,83 62.9,85.4 62.9,88.3C62.9,91.2 65.3,93.6 68.2,93.6C71.1,93.6 73.5,91.2 73.5,88.3C73.6,85.4 71.2,83 68.2,83Z" style="fill:white;fill-rule:nonzero;"/>
        </g>
        <g transform="matrix(0.243645,0,0,0.376392,0.117961,38.9429)">
            <path d="M51.5,80.4L21.7,48.6L52.4,79.5L51.5,80.4Z" style="fill:white;fill-rule:nonzero;"/>
        </g>
        <g transform="matrix(0.243645,0,0,0.376392,0.117961,38.9429)">
            <path d="M56.8,74.5L39.8,34.2L58,74L56.8,74.5Z" style="fill:white;fill-rule:nonzero;"/>
        </g>
        <g transform="matrix(0.243645,0,0,0.376392,0.117961,38.9429)">
            <path d="M63.4,71.4L59.1,27.9L64.7,71.2L63.4,71.4Z" style="fill:white;fill-rule:nonzero;"/>
        </g>
        <g transform="matrix(0.243645,0,0,0.376392,0.117961,38.9429)">
            <path d="M70.2,70.7L79.7,28.3L71.5,70.9L70.2,70.7Z" style="fill:white;fill-rule:nonzero;"/>
        </g>
        <g transform="matrix(0.243645,0,0,0.376392,0.117961,38.9429)">
            <path d="M77.4,73.1L98.9,35.4L78.5,73.7L77.4,73.1Z" style="fill:white;fill-rule:nonzero;"/>
        </g>
        <g transform="matrix(0.243645,0,0,0.376392,0.117961,38.9429)">
            <path d="M83.8,78.7L115.5,49.6L84.7,79.6L83.8,78.7Z" style="fill:white;fill-rule:nonzero;"/>
        </g>
        <g transform="matrix(0.243645,0,0,0.376392,0.117961,38.9429)">
            <path d="M127.2,72C115.7,76.8 98.9,82.6 87,86.7C86.5,84.4 85.6,82.2 84.3,80.3C78.3,70.9 65.4,68.5 56.7,75.7C53.2,78.5 50.8,82.5 49.9,86.9C49.6,86.8 48.9,86.6 48.6,86.4C42.1,84.1 33.2,80.7 26.7,78.4C21,76.2 15,73.7 9.4,71.4C15.2,73.3 21.4,75.2 27.1,77.3C33.3,79.6 42.1,82.8 48.3,85.1L49.5,85.6L48.7,86.1C53.2,68.7 75.3,64.8 85.2,79.9C86.4,81.8 87.3,83.9 87.9,86.1L87.1,85.6C98.8,81.2 115.4,75.4 127.2,72Z" style="fill:white;fill-rule:nonzero;"/>
        </g>
        <g transform="matrix(0.444105,0,0,0.686071,-13.567,-0.806976)">
            <path d="M58.3,136.8C58.2,136.9 58.1,137.1 58,137.2C57.9,137.3 57.7,137.4 57.5,137.4C57.3,137.5 57.1,137.5 56.9,137.5L54.9,137.5L54.9,133.3L56.9,133.3C57.3,133.3 57.6,133.4 57.9,133.6C58.1,133.8 58.3,134.1 58.3,134.4L58.3,134.7C58.3,134.8 58.2,134.9 58.2,134.9C58.2,135 58.1,135 58,135.1C57.9,135.2 57.9,135.2 57.8,135.2C58,135.3 58.2,135.4 58.4,135.6C58.5,135.8 58.6,136 58.6,136.3C58.4,136.5 58.4,136.7 58.3,136.8ZM57.3,134.5C57.3,134.4 57.2,134.3 57.1,134.2C57,134.1 56.8,134.1 56.6,134.1L55.7,134.1L55.7,135L56.6,135C56.8,135 56.9,135 57.1,134.9C57.2,134.8 57.3,134.7 57.3,134.5ZM57.5,136.2C57.5,136.1 57.4,135.9 57.3,135.9C57.1,135.8 57,135.8 56.8,135.8L55.7,135.8L55.7,136.7L56.8,136.7C57,136.7 57.1,136.7 57.3,136.6C57.4,136.5 57.5,136.4 57.5,136.2Z" style="fill:white;fill-rule:nonzero;"/>
        </g>
        <g transform="matrix(0.444105,0,0,0.686071,-13.567,-0.806976)">
            <path d="M61,137.5L61,137.2C60.9,137.3 60.8,137.4 60.6,137.5C60.4,137.6 60.2,137.6 60,137.6C59.9,137.6 59.7,137.6 59.6,137.5C59.5,137.5 59.4,137.4 59.2,137.3C59.1,137.2 59,137.1 59,137C58.9,136.9 58.9,136.7 58.9,136.6C58.9,136.4 58.9,136.3 59,136.1C59.1,136 59.2,135.9 59.3,135.8C59.4,135.7 59.6,135.6 59.7,135.6C59.9,135.6 60,135.5 60.2,135.5L60.7,135.5C60.8,135.5 60.9,135.6 61.1,135.6L61.1,135.5C61.1,135.3 61,135.2 60.9,135C60.8,134.9 60.6,134.8 60.4,134.9L59.9,134.9C59.8,134.9 59.6,135 59.5,135L59.3,134.3C59.5,134.2 59.7,134.2 59.9,134.1C60.1,134 60.4,134 60.6,134C61.3,133.9 61.9,134.4 62,135L62,137.2L61,137.2L61,137.5ZM61,136.2C60.9,136.2 60.9,136.2 60.8,136.1L60.5,136.1C60.3,136.1 60.2,136.1 60,136.2C59.9,136.3 59.8,136.4 59.8,136.5C59.8,136.6 59.8,136.7 59.9,136.8C60,136.9 60.1,136.9 60.3,136.9C60.5,136.9 60.7,136.9 60.8,136.7C60.9,136.6 61,136.5 61,136.3L61,136.2Z" style="fill:white;fill-rule:nonzero;"/>
        </g>
        <g transform="matrix(0.444105,0,0,0.686071,-13.567,-0.806976)">
            <rect x="62.7" y="133.1" width="0.9" height="4.4" style="fill:white;fill-rule:nonzero;"/>
        </g>
        <g transform="matrix(0.444105,0,0,0.686071,-13.567,-0.806976)">
            <path d="M64.5,133.9L64.5,133.1L65.5,133.1L65.5,133.9L64.5,133.9ZM64.5,137.5L64.5,134.3L65.4,134.3L65.4,137.5L64.5,137.5Z" style="fill:white;fill-rule:nonzero;"/>
        </g>
        <g transform="matrix(0.444105,0,0,0.686071,-13.567,-0.806976)">
            <path d="M70.1,134.1L70.1,137.4L69.2,137.4L69.2,134L67.9,134L67.9,133.2L71.4,133.2L71.4,134.1L70.1,134.1Z" style="fill:white;fill-rule:nonzero;"/>
        </g>
        <g transform="matrix(0.444105,0,0,0.686071,-13.567,-0.806976)">
            <path d="M75.1,136.5C75,136.7 74.9,136.9 74.7,137C74.5,137.2 74.4,137.3 74.2,137.4C74,137.5 73.7,137.5 73.5,137.5C73.3,137.5 73,137.5 72.8,137.4C72.6,137.3 72.4,137.2 72.3,137C72.1,136.8 72,136.7 71.9,136.5C71.8,136.3 71.8,136.1 71.8,135.8C71.8,135.6 71.8,135.4 71.9,135.2C72.1,134.8 72.4,134.5 72.8,134.3C73,134.2 73.3,134.2 73.5,134.2C73.7,134.2 74,134.2 74.2,134.3C74.4,134.4 74.6,134.5 74.7,134.7C75,135 75.2,135.4 75.2,135.9C75.3,136.1 75.2,136.3 75.1,136.5ZM74.4,135.9C74.4,135.8 74.4,135.7 74.3,135.6C74.3,135.5 74.2,135.4 74.1,135.3C74,135.2 73.9,135.2 73.8,135.1C73.7,135.1 73.6,135 73.5,135C73.4,135 73.3,135 73.1,135.1C73,135.1 72.9,135.2 72.8,135.3C72.7,135.4 72.7,135.5 72.6,135.6C72.6,135.7 72.5,135.8 72.5,135.9C72.5,136 72.5,136.1 72.6,136.2C72.6,136.3 72.7,136.4 72.8,136.5C72.9,136.6 73,136.6 73.1,136.7C73.2,136.7 73.3,136.8 73.4,136.8C73.5,136.8 73.6,136.8 73.8,136.7C74,136.6 74.2,136.5 74.2,136.2C74.4,136.1 74.4,136 74.4,135.9Z" style="fill:white;fill-rule:nonzero;"/>
        </g>
        <g transform="matrix(0.444105,0,0,0.686071,-13.567,-0.806976)">
            <path d="M77.9,137.5L77.9,137L77.5,137.4C77.4,137.4 77.3,137.5 77.2,137.5L76.9,137.5C76.6,137.5 76.3,137.4 76.1,137.2C75.9,136.9 75.8,136.6 75.8,136.3L75.8,134.2L76.7,134.2L76.7,136C76.7,136.2 76.7,136.3 76.8,136.5C76.9,136.6 77.1,136.7 77.2,136.7C77.4,136.7 77.5,136.6 77.6,136.5C77.7,136.4 77.8,136.2 77.8,136L77.8,134.2L78.7,134.2L78.7,137.4L77.9,137.4L77.9,137.5Z" style="fill:white;fill-rule:nonzero;"/>
        </g>
        <g transform="matrix(0.444105,0,0,0.686071,-13.567,-0.806976)">
            <path d="M81.6,135.2C81.3,135.2 81.1,135.3 80.9,135.5C80.7,135.7 80.6,136 80.6,136.4L80.6,137.6L79.7,137.6L79.7,134.4L80.6,134.4L80.6,135C80.7,134.8 80.8,134.6 81,134.5C81.2,134.4 81.4,134.3 81.6,134.3L81.6,135.2Z" style="fill:white;fill-rule:nonzero;"/>
        </g>
        <g transform="matrix(0.345738,0,0,0.53411,5.16328,88.7817)">
            <text x="0px" y="0px" style="font-family:'Breaking';font-size:20.402px;fill:white;">ShellFish</text>
        </g>
    </g>
</svg>
