<?xml version="1.0" encoding="utf-8"?>
<!-- Generator: Adobe Illustrator 20.1.0, SVG Export Plug-In . SVG Version: 6.00 Build 0)  -->
<svg version="1.1" id="Layer_1" xmlns="http://www.w3.org/2000/svg" xmlns:xlink="http://www.w3.org/1999/xlink" x="0px" y="0px"
	 viewBox="0 0 298.3 139.3" style="enable-background:new 0 0 298.3 139.3;" xml:space="preserve">
<style type="text/css">
	.st0{fill:#F68927;}
	.st1{fill:#FFFFFF;}
	.st2{fill:none;}
	.st3{font-family:'Breaking';}
	.st4{font-size:20.4022px;}
</style>
<path class="st0" d="M31.5,23.7c-1.8,1.9-3.3,4.9-3.9,9.4l0,0l23.3,37.5l3.9,6.3l-4-5.8L25.9,35.1l0,0c0,0-16.7,0.7-13.9,18.4l0,0
	l32.8,25.7l5.5,4.3l-5.4-3.8L11,56l0,0c0,0-15.5,7.4-7.8,22.9l0,0l38.2,10.7l0,0c0,0-13.6,2.4-21.2,7c-1.1,0.7-1.4,2.1-0.8,3.2
	c0.4,0.6,1.1,1,1.8,1.1c0.5,0,0.9,0.1,1.4,0.1c2.3,0.1,4.7-0.2,7-0.8l0,0c0.1,0.3,1.1,2.9,3.6,3.5c1.6,0.4,3.8-0.3,6.7-3.3l0,0
	c0,0,7.7,10.4,16.4,0.8l0,0c0.3,0.4,5.3,6.4,13.1,5.9c7.4-0.5,10.6-6.5,10.9-7l0,0c1.7,3.2,5.4,5.2,9,5.1c4.9-0.1,7.5-4.1,7.7-4.4
	l0,0c1.3,2.2,3.7,3.2,5.8,2.7c1.4-0.4,2.6-1.4,3.2-2.7l0,0c2.4,0.6,4.8,1,7.3,1.1h0.1c1.3,0,2.4-1,2.4-2.3c0-0.7-0.3-1.5-0.9-1.9
	c-6-4.6-13.1-7.4-20.5-8.4l0,0l38.8-7.8l0,0c0,0,7.9-17.5-6.4-23.4l0,0L91.6,79.3l-5.9,3.5l5.5-3.7L125.5,56l0,0
	c0,0,2.4-19.7-12.7-19.3l0,0L85.6,70.7L81,76.4c2.1-2.9,4.1-5.7,4.1-5.7L110.8,35l0,0c0,0-3.4-19.4-17.6-12.9l0,0l-15.8,43
	c0,0-1.3,3.6-2.7,7.2l2.3-7L91,21.4l0,0c0,0-8.8-16.8-20.3-5l0,0l-2.5,46.7c0,0-0.2,3.9-0.4,7.9l0.1-7.5l0.5-46.8l0,0
	c0,0-13.1-12.2-20.5,3.6l0,0L59,65c0,0,0.9,3.8,1.9,7.5c-1-3.5-2.1-7.1-2.1-7.1l-13-44.1l0,0C45.8,21.4,36.9,18,31.5,23.7z"/>
<path class="st1" d="M68.2,100.5c-6.7,0-12.1-5.4-12.1-12.1c0-6.7,5.4-12.1,12.1-12.1c6.7,0,12.1,5.4,12.1,12.1c0,0,0,0,0,0
	C80.3,95.1,74.9,100.5,68.2,100.5z M68.2,77.5c-6,0-10.8,4.8-10.8,10.8c0,6,4.8,10.8,10.8,10.8c6,0,10.8-4.8,10.8-10.8
	C79.1,82.4,74.2,77.5,68.2,77.5L68.2,77.5z"/>
<path class="st1" d="M68.2,95c-3.6,0-6.6-2.9-6.6-6.6c0-3.6,2.9-6.6,6.6-6.6s6.6,2.9,6.6,6.6c0,0,0,0,0,0C74.8,92,71.9,94.9,68.2,95
	z M68.2,83c-2.9,0-5.3,2.4-5.3,5.3c0,2.9,2.4,5.3,5.3,5.3c2.9,0,5.3-2.4,5.3-5.3C73.6,85.4,71.2,83,68.2,83L68.2,83z"/>
<polygon class="st1" points="51.5,80.4 21.7,48.6 52.4,79.5 51.5,80.4 "/>
<polygon class="st1" points="56.8,74.5 39.8,34.2 58,74 56.8,74.5 "/>
<polygon class="st1" points="63.4,71.4 59.1,27.9 64.7,71.2 63.4,71.4 "/>
<polygon class="st1" points="70.2,70.7 79.7,28.3 71.5,70.9 70.2,70.7 "/>
<polygon class="st1" points="77.4,73.1 98.9,35.4 78.5,73.7 77.4,73.1 "/>
<polygon class="st1" points="83.8,78.7 115.5,49.6 84.7,79.6 83.8,78.7 "/>
<path class="st1" d="M127.2,72C115.7,76.8,98.9,82.6,87,86.7c-0.5-2.3-1.4-4.5-2.7-6.4c-6-9.4-18.9-11.8-27.6-4.6
	c-3.5,2.8-5.9,6.8-6.8,11.2c-0.3-0.1-1-0.3-1.3-0.5c-6.5-2.3-15.4-5.7-21.9-8c-5.7-2.2-11.7-4.7-17.3-7c5.8,1.9,12,3.8,17.7,5.9
	c6.2,2.3,15,5.5,21.2,7.8l1.2,0.5l-0.8,0.5c4.5-17.4,26.6-21.3,36.5-6.2c1.2,1.9,2.1,4,2.7,6.2l-0.8-0.5
	C98.8,81.2,115.4,75.4,127.2,72L127.2,72z"/>
<path class="st1" d="M58.3,136.8c-0.1,0.1-0.2,0.3-0.3,0.4c-0.1,0.1-0.3,0.2-0.5,0.2c-0.2,0.1-0.4,0.1-0.6,0.1h-2v-4.2h2
	c0.4,0,0.7,0.1,1,0.3c0.2,0.2,0.4,0.5,0.4,0.8l0,0c0,0.1,0,0.2,0,0.3c0,0.1-0.1,0.2-0.1,0.2c0,0.1-0.1,0.1-0.2,0.2
	c-0.1,0.1-0.1,0.1-0.2,0.1c0.2,0.1,0.4,0.2,0.6,0.4c0.1,0.2,0.2,0.4,0.2,0.7l0,0C58.4,136.5,58.4,136.7,58.3,136.8z M57.3,134.5
	c0-0.1-0.1-0.2-0.2-0.3c-0.1-0.1-0.3-0.1-0.5-0.1h-0.9v0.9h0.9c0.2,0,0.3,0,0.5-0.1C57.2,134.8,57.3,134.7,57.3,134.5L57.3,134.5z
	 M57.5,136.2c0-0.1-0.1-0.3-0.2-0.3c-0.2-0.1-0.3-0.1-0.5-0.1h-1.1v0.9h1.1c0.2,0,0.3,0,0.5-0.1C57.4,136.5,57.5,136.4,57.5,136.2
	L57.5,136.2z"/>
<path class="st1" d="M61,137.5v-0.3c-0.1,0.1-0.2,0.2-0.4,0.3c-0.2,0.1-0.4,0.1-0.6,0.1c-0.1,0-0.3,0-0.4-0.1
	c-0.1,0-0.2-0.1-0.4-0.2c-0.1-0.1-0.2-0.2-0.2-0.3c-0.1-0.1-0.1-0.3-0.1-0.4l0,0c0-0.2,0-0.3,0.1-0.5c0.1-0.1,0.2-0.2,0.3-0.3
	c0.1-0.1,0.3-0.2,0.4-0.2c0.2,0,0.3-0.1,0.5-0.1c0.2,0,0.3,0,0.5,0c0.1,0,0.2,0.1,0.4,0.1v-0.1c0-0.2-0.1-0.3-0.2-0.5
	c-0.1-0.1-0.3-0.2-0.5-0.1c-0.2,0-0.3,0-0.5,0c-0.1,0-0.3,0.1-0.4,0.1l-0.2-0.7c0.2-0.1,0.4-0.1,0.6-0.2c0.2-0.1,0.5-0.1,0.7-0.1
	c0.7-0.1,1.3,0.4,1.4,1c0,0.1,0,0.2,0,0.3v1.9H61z M61,136.2c-0.1,0-0.1,0-0.2-0.1c-0.1,0-0.2,0-0.3,0c-0.2,0-0.3,0-0.5,0.1
	c-0.1,0.1-0.2,0.2-0.2,0.3l0,0c0,0.1,0,0.2,0.1,0.3c0.1,0.1,0.2,0.1,0.4,0.1c0.2,0,0.4,0,0.5-0.2c0.1-0.1,0.2-0.2,0.2-0.4L61,136.2z
	"/>
<path class="st1" d="M62.7,137.5v-4.4h0.9v4.4H62.7z"/>
<path class="st1" d="M64.5,133.9v-0.8h1v0.8H64.5z M64.5,137.5v-3.2h0.9v3.2L64.5,137.5z"/>
<path class="st1" d="M70.1,134.1v3.3h-0.9v-3.4h-1.3v-0.8h3.5v0.9H70.1z"/>
<path class="st1" d="M75.1,136.5c-0.1,0.2-0.2,0.4-0.4,0.5c-0.2,0.2-0.3,0.3-0.5,0.4c-0.2,0.1-0.5,0.1-0.7,0.1c-0.2,0-0.5,0-0.7-0.1
	c-0.2-0.1-0.4-0.2-0.5-0.4c-0.2-0.2-0.3-0.3-0.4-0.5c-0.1-0.2-0.1-0.4-0.1-0.7l0,0c0-0.2,0-0.4,0.1-0.6c0.2-0.4,0.5-0.7,0.9-0.9
	c0.2-0.1,0.5-0.1,0.7-0.1c0.2,0,0.5,0,0.7,0.1c0.2,0.1,0.4,0.2,0.5,0.4c0.3,0.3,0.5,0.7,0.5,1.2l0,0
	C75.3,136.1,75.2,136.3,75.1,136.5z M74.4,135.9c0-0.1,0-0.2-0.1-0.3c0-0.1-0.1-0.2-0.2-0.3c-0.1-0.1-0.2-0.1-0.3-0.2
	c-0.1,0-0.2-0.1-0.3-0.1c-0.1,0-0.2,0-0.4,0.1c-0.1,0-0.2,0.1-0.3,0.2c-0.1,0.1-0.1,0.2-0.2,0.3c0,0.1-0.1,0.2-0.1,0.3l0,0
	c0,0.1,0,0.2,0.1,0.3c0,0.1,0.1,0.2,0.2,0.3c0.1,0.1,0.2,0.1,0.3,0.2c0.1,0,0.2,0.1,0.3,0.1c0.1,0,0.2,0,0.4-0.1
	c0.2-0.1,0.4-0.2,0.4-0.5C74.4,136.1,74.4,136,74.4,135.9L74.4,135.9z"/>
<path class="st1" d="M77.9,137.5V137c-0.1,0.1-0.1,0.1-0.2,0.2c-0.1,0.1-0.1,0.1-0.2,0.2c-0.1,0-0.2,0.1-0.3,0.1c-0.1,0-0.2,0-0.3,0
	c-0.3,0-0.6-0.1-0.8-0.3c-0.2-0.3-0.3-0.6-0.3-0.9v-2.1h0.9v1.8c0,0.2,0,0.3,0.1,0.5c0.1,0.1,0.3,0.2,0.4,0.2c0.2,0,0.3-0.1,0.4-0.2
	c0.1-0.1,0.2-0.3,0.2-0.5v-1.8h0.9v3.2H77.9z"/>
<path class="st1" d="M81.6,135.2c-0.3,0-0.5,0.1-0.7,0.3c-0.2,0.2-0.3,0.5-0.3,0.9v1.2h-0.9v-3.2h0.9v0.6c0.1-0.2,0.2-0.4,0.4-0.5
	c0.2-0.1,0.4-0.2,0.6-0.2L81.6,135.2L81.6,135.2z"/>
<text transform="matrix(1 0 0 1 34.7646 128.8343)" class="st1 st3 st4">ShellFish</text>
</svg>
