<svg width="150" height="78" viewBox="0 0 300 178" fill="none" xmlns="http://www.w3.org/2000/svg">
<path d="M63.7069 28.9019C60.6296 32.1124 58.1895 37.0551 57.1609 44.5255L95.9993 106.962L102.541 117.472L95.8785 107.849L54.4126 47.8026C54.4126 47.8026 26.6466 48.9561 31.3312 78.4377L85.8514 121.161L95.0332 128.357L86.0055 122.04L29.6905 82.6226C29.6905 82.6226 3.87324 95.0108 16.7486 120.753L80.3632 138.609C80.3299 138.609 57.7814 142.527 45.1351 150.326C44.4378 150.757 43.8939 151.396 43.5807 152.153C43.2675 152.91 43.2009 153.747 43.3904 154.544C43.5799 155.342 44.0159 156.059 44.6363 156.594C45.2568 157.129 46.0301 157.455 46.8465 157.526C47.6127 157.597 48.4122 157.643 49.2325 157.668C53.1386 157.782 57.0409 157.337 60.8212 156.348C61.0127 156.86 62.5742 161.236 66.755 162.177C69.4366 162.789 73.1052 161.761 77.9064 156.647C77.9064 156.647 90.7109 173.983 105.164 158.051C105.635 158.705 114.021 168.769 126.884 167.953C139.197 167.174 144.573 157.126 145.09 156.26C147.842 161.603 154.159 164.93 160.014 164.805C168.092 164.63 172.435 157.972 172.756 157.459C174.896 161.045 178.86 162.823 182.375 161.948C185.889 161.074 187.48 157.988 187.746 157.459C191.732 158.507 195.821 159.111 199.939 159.258H200.051C203.824 159.383 205.535 154.561 202.55 152.279C192.596 144.701 180.817 139.886 168.404 138.321L233.064 125.279C233.064 125.279 246.256 96.0893 222.433 86.3287L163.765 121.411L153.888 127.312L163.049 121.136L220.201 82.5893C220.201 82.5893 224.236 49.8514 198.994 50.3969L153.83 107.137L146.222 116.689L153.076 107.17L195.825 47.7735C195.825 47.7735 190.22 15.4353 166.601 26.2202L140.368 97.8007L135.954 109.852L139.668 98.138L162.862 25.0501C162.862 25.0501 148.288 -2.98663 129.133 16.722L124.998 94.5069C124.998 94.5069 124.652 101.053 124.303 107.603C124.373 101.357 124.44 95.1107 124.44 95.1107L125.273 17.1509C125.273 17.1509 103.49 -3.20316 91.1273 23.0847L109.591 97.6924C109.591 97.6924 111.144 103.972 112.701 110.251C110.969 104.367 109.233 98.4836 109.233 98.4836L87.6212 25.0626C87.6212 25.0626 72.8678 19.3412 63.7069 28.9019Z" stroke="#FF891F" stroke-width="5" stroke-miterlimit="10"/>
<path d="M124.919 155.586C135.449 155.586 143.986 147.049 143.986 136.518C143.986 125.988 135.449 117.451 124.919 117.451C114.388 117.451 105.852 125.988 105.852 136.518C105.852 147.049 114.388 155.586 124.919 155.586Z" stroke="#FF891F" stroke-width="5" stroke-miterlimit="10"/>
<path d="M124.918 146.429C130.392 146.429 134.829 141.992 134.829 136.518C134.829 131.045 130.392 126.608 124.918 126.608C119.445 126.608 115.008 131.045 115.008 136.518C115.008 141.992 119.445 146.429 124.918 146.429Z" stroke="#FF891F" stroke-width="5" stroke-miterlimit="10"/>
<path d="M97.7557 122.552L47.5078 70.3719" stroke="#FF891F" stroke-width="5" stroke-miterlimit="10"/>
<path d="M106.921 112.966L77.6143 46.3286" stroke="#FF891F" stroke-width="5" stroke-miterlimit="10"/>
<path d="M117.989 108.082L109.819 35.8101" stroke="#FF891F" stroke-width="5" stroke-miterlimit="10"/>
<path d="M129.299 107.278L143.986 36.4805" stroke="#FF891F" stroke-width="5" stroke-miterlimit="10"/>
<path d="M141.025 111.542L175.962 48.4023" stroke="#FF891F" stroke-width="5" stroke-miterlimit="10"/>
<path d="M151.61 121.232L203.645 71.946" stroke="#FF891F" stroke-width="5" stroke-miterlimit="10"/>
<path d="M223.053 109.285L156.845 132.363C153.005 117.014 138.897 106.545 123.619 107.295C109.432 108.003 97.1067 118.259 93.6381 132.479C92.2431 132.063 27.1211 108.065 27.1211 108.065" stroke="#FF891F" stroke-width="5" stroke-miterlimit="10"/>
</svg>
